<svg width="73" height="16" viewBox="0 0 73 16" fill="none" xmlns="http://www.w3.org/2000/svg">
<path d="M13.5914 15H9.70469C8.95599 13.8411 8.12266 12.6921 7.20469 11.5527C6.29323 10.4069 5.3362 9.29688 4.3336 8.22266H4.07969V13.0469C4.07969 13.2617 4.11875 13.4538 4.19688 13.623C4.28151 13.7923 4.43125 13.929 4.6461 14.0332C4.75026 14.0788 4.94232 14.1341 5.22227 14.1992C5.50873 14.2643 5.74636 14.3001 5.93516 14.3066V15H0.183205V14.3066C0.332944 14.2936 0.551043 14.2741 0.837502 14.248C1.12396 14.222 1.32578 14.1829 1.44297 14.1309C1.63828 14.0462 1.77826 13.9225 1.86289 13.7598C1.95404 13.5905 1.99961 13.3887 1.99961 13.1543V3.1543C1.99961 2.93294 1.96055 2.74089 1.88242 2.57812C1.81081 2.41536 1.66432 2.2819 1.44297 2.17773C1.26719 2.0931 1.05886 2.01823 0.81797 1.95312C0.577085 1.88802 0.365496 1.84896 0.183205 1.83594V1.14258H5.93516V1.83594C5.75287 1.84245 5.525 1.87174 5.25156 1.92383C4.97813 1.97591 4.7763 2.02474 4.6461 2.07031C4.42474 2.14844 4.275 2.27865 4.19688 2.46094C4.11875 2.64323 4.07969 2.8418 4.07969 3.05664V7.8418H4.275C4.86094 7.34701 5.43711 6.83268 6.00352 6.29883C6.56992 5.75846 7.08425 5.22135 7.54649 4.6875C8.06081 4.09505 8.43516 3.62305 8.66953 3.27148C8.91042 2.91341 9.03086 2.59766 9.03086 2.32422C9.03086 2.22656 8.96901 2.14844 8.84531 2.08984C8.72813 2.02474 8.59141 1.97266 8.43516 1.93359C8.25287 1.89453 8.09011 1.87174 7.94688 1.86523C7.80365 1.85221 7.68646 1.84245 7.59531 1.83594V1.14258H12.7906V1.83594C12.7711 1.83594 12.7288 1.83919 12.6637 1.8457C12.5986 1.85221 12.5237 1.85872 12.4391 1.86523C12.3479 1.87174 12.2568 1.88477 12.1656 1.9043C12.0745 1.92383 11.9573 1.94661 11.8141 1.97266C11.5862 2.02474 11.3486 2.10938 11.1012 2.22656C10.8603 2.33724 10.6617 2.47721 10.5055 2.64648C9.8349 3.4082 9.13503 4.19596 8.40586 5.00977C7.67669 5.82357 6.95404 6.56576 6.23789 7.23633C7.22748 8.35612 8.04453 9.31966 8.68906 10.127C9.34011 10.9342 10.0302 11.7969 10.7594 12.7148C11.0393 13.0664 11.3193 13.3496 11.5992 13.5645C11.8792 13.7728 12.1201 13.929 12.3219 14.0332C12.4911 14.1178 12.7027 14.1829 12.9566 14.2285C13.2105 14.2741 13.4221 14.3001 13.5914 14.3066V15ZM24.098 14.8242C23.7921 14.9349 23.5219 15.0228 23.2875 15.0879C23.0596 15.1595 22.7992 15.1953 22.5063 15.1953C21.9984 15.1953 21.5915 15.0781 21.2855 14.8438C20.9861 14.6029 20.794 14.2546 20.7094 13.7988H20.6508C20.2276 14.2676 19.7719 14.6257 19.2836 14.873C18.8018 15.1204 18.2191 15.2441 17.5355 15.2441C16.8129 15.2441 16.2172 15.0228 15.7484 14.5801C15.2862 14.1374 15.0551 13.5579 15.0551 12.8418C15.0551 12.4707 15.1072 12.1387 15.2113 11.8457C15.3155 11.5527 15.4717 11.2891 15.6801 11.0547C15.8428 10.8594 16.0577 10.6868 16.3246 10.5371C16.5915 10.3809 16.8422 10.2572 17.0766 10.166C17.3695 10.0553 17.962 9.85026 18.8539 9.55078C19.7523 9.2513 20.3578 9.01693 20.6703 8.84766V7.88086C20.6703 7.79622 20.6508 7.63346 20.6117 7.39258C20.5792 7.15169 20.5043 6.92383 20.3871 6.70898C20.2569 6.4681 20.0714 6.25977 19.8305 6.08398C19.5961 5.90169 19.2608 5.81055 18.8246 5.81055C18.5251 5.81055 18.2452 5.86263 17.9848 5.9668C17.7309 6.06445 17.5518 6.16862 17.4477 6.2793C17.4477 6.40951 17.477 6.60156 17.5355 6.85547C17.6007 7.10938 17.6332 7.34375 17.6332 7.55859C17.6332 7.78646 17.529 7.99479 17.3207 8.18359C17.1189 8.3724 16.8357 8.4668 16.4711 8.4668C16.1456 8.4668 15.9047 8.35286 15.7484 8.125C15.5987 7.89062 15.5238 7.63021 15.5238 7.34375C15.5238 7.04427 15.628 6.75781 15.8363 6.48438C16.0512 6.21094 16.3279 5.9668 16.6664 5.75195C16.9594 5.56966 17.3142 5.41667 17.7309 5.29297C18.1475 5.16276 18.5544 5.09766 18.9516 5.09766C19.4984 5.09766 19.9737 5.13672 20.3773 5.21484C20.7875 5.28646 21.1586 5.44596 21.4906 5.69336C21.8227 5.93424 22.0733 6.26302 22.2426 6.67969C22.4184 7.08984 22.5063 7.62044 22.5063 8.27148C22.5063 9.20247 22.4965 10.0293 22.477 10.752C22.4574 11.4681 22.4477 12.2526 22.4477 13.1055C22.4477 13.3594 22.49 13.5612 22.5746 13.7109C22.6658 13.8607 22.8025 13.9876 22.9848 14.0918C23.0824 14.1504 23.2354 14.1829 23.4438 14.1895C23.6586 14.196 23.8767 14.1992 24.098 14.1992V14.8242ZM20.6898 9.66797C20.1365 9.83073 19.6514 9.99023 19.2348 10.1465C18.8181 10.3027 18.4307 10.498 18.0727 10.7324C17.7471 10.9538 17.49 11.2174 17.3012 11.5234C17.1124 11.8229 17.018 12.181 17.018 12.5977C17.018 13.138 17.1579 13.5352 17.4379 13.7891C17.7244 14.043 18.0857 14.1699 18.5219 14.1699C18.9841 14.1699 19.391 14.0592 19.7426 13.8379C20.0941 13.61 20.3904 13.3431 20.6313 13.0371L20.6898 9.66797ZM32.2023 14.5801C31.7792 14.7559 31.3788 14.9023 31.0012 15.0195C30.6236 15.1432 30.1613 15.2051 29.6145 15.2051C28.8072 15.2051 28.2375 15.0033 27.9055 14.5996C27.5799 14.1895 27.4172 13.6133 27.4172 12.8711V6.34766H25.6789V5.41016H27.4563V2.41211H29.2336V5.41016H31.9973V6.34766H29.2531V11.7285C29.2531 12.1322 29.2661 12.4707 29.2922 12.7441C29.3247 13.0111 29.3964 13.2454 29.507 13.4473C29.6112 13.6361 29.7674 13.7793 29.9758 13.877C30.1841 13.9746 30.4641 14.0234 30.8156 14.0234C30.9784 14.0234 31.216 14.0104 31.5285 13.9844C31.8475 13.9518 32.0721 13.9128 32.2023 13.8672V14.5801ZM41.7422 6.61133C41.7422 6.94336 41.6608 7.23958 41.498 7.5C41.3353 7.75391 41.0846 7.88086 40.7461 7.88086C40.3815 7.88086 40.1016 7.78646 39.9062 7.59766C39.7174 7.40885 39.623 7.20052 39.623 6.97266C39.623 6.82943 39.6328 6.69922 39.6523 6.58203C39.6784 6.46484 39.7012 6.34766 39.7207 6.23047C39.4147 6.23047 39.0566 6.35417 38.6465 6.60156C38.2363 6.84896 37.888 7.20052 37.6016 7.65625V13.2617C37.6016 13.4896 37.6439 13.6751 37.7285 13.8184C37.8197 13.9616 37.9596 14.069 38.1484 14.1406C38.3112 14.2057 38.5195 14.2546 38.7734 14.2871C39.0339 14.3197 39.2585 14.3424 39.4473 14.3555V15H34.3691V14.3555C34.5189 14.3424 34.6719 14.3294 34.8281 14.3164C34.9909 14.3034 35.1309 14.2773 35.248 14.2383C35.4303 14.1797 35.5638 14.0788 35.6484 13.9355C35.7396 13.7858 35.7852 13.5938 35.7852 13.3594V7.41211C35.7852 7.21029 35.7363 7.01172 35.6387 6.81641C35.5475 6.62109 35.4173 6.46484 35.248 6.34766C35.1243 6.26953 34.9779 6.21419 34.8086 6.18164C34.6393 6.14258 34.457 6.11654 34.2617 6.10352V5.46875L37.4648 5.25391L37.6016 5.39062V6.74805H37.6504C38.054 6.2207 38.5033 5.82031 38.998 5.54688C39.4928 5.27344 39.9453 5.13672 40.3555 5.13672C40.7656 5.13672 41.0977 5.27018 41.3516 5.53711C41.612 5.80404 41.7422 6.16211 41.7422 6.61133ZM48.45 15H43.7918V14.3555C43.9415 14.3424 44.0945 14.3294 44.2508 14.3164C44.4135 14.3034 44.5535 14.2773 44.6707 14.2383C44.853 14.1797 44.9865 14.0788 45.0711 13.9355C45.1622 13.7858 45.2078 13.5938 45.2078 13.3594V7.41211C45.2078 7.20378 45.159 7.01497 45.0613 6.8457C44.9702 6.66992 44.84 6.52344 44.6707 6.40625C44.547 6.32812 44.368 6.26302 44.1336 6.21094C43.8992 6.15234 43.6844 6.11654 43.4891 6.10352V5.46875L46.8875 5.25391L47.0242 5.39062V13.2422C47.0242 13.4701 47.0665 13.6589 47.1512 13.8086C47.2423 13.9583 47.3823 14.069 47.5711 14.1406C47.7143 14.1992 47.8543 14.248 47.991 14.2871C48.1277 14.3197 48.2807 14.3424 48.45 14.3555V15ZM47.2195 1.45508C47.2195 1.82617 47.0958 2.15169 46.8484 2.43164C46.6076 2.70508 46.3081 2.8418 45.95 2.8418C45.618 2.8418 45.3283 2.71159 45.0809 2.45117C44.84 2.18424 44.7195 1.88151 44.7195 1.54297C44.7195 1.1849 44.84 0.872396 45.0809 0.605469C45.3283 0.338542 45.618 0.205078 45.95 0.205078C46.3211 0.205078 46.6238 0.332031 46.8582 0.585938C47.0991 0.833333 47.2195 1.12305 47.2195 1.45508ZM61.4664 15H56.7496V14.3555C56.8994 14.3424 57.0621 14.3294 57.2379 14.3164C57.4202 14.3034 57.5699 14.2773 57.6871 14.2383C57.8694 14.1797 58.0029 14.0788 58.0875 13.9355C58.1786 13.7858 58.2242 13.5938 58.2242 13.3594V8.4082C58.2242 7.72461 58.0615 7.19727 57.7359 6.82617C57.4169 6.45508 57.0263 6.26953 56.5641 6.26953C56.219 6.26953 55.9033 6.32487 55.6168 6.43555C55.3303 6.53971 55.0764 6.66992 54.8551 6.82617C54.6402 6.97591 54.4677 7.13867 54.3375 7.31445C54.2138 7.48372 54.1227 7.62044 54.0641 7.72461V13.2617C54.0641 13.4831 54.1096 13.6654 54.2008 13.8086C54.2919 13.9518 54.4286 14.0625 54.6109 14.1406C54.7477 14.2057 54.8941 14.2546 55.0504 14.2871C55.2132 14.3197 55.3792 14.3424 55.5484 14.3555V15H50.8316V14.3555C50.9814 14.3424 51.1344 14.3294 51.2906 14.3164C51.4534 14.3034 51.5934 14.2773 51.7105 14.2383C51.8928 14.1797 52.0263 14.0788 52.1109 13.9355C52.2021 13.7858 52.2477 13.5938 52.2477 13.3594V7.41211C52.2477 7.19076 52.1988 6.98893 52.1012 6.80664C52.01 6.61784 51.8798 6.46484 51.7105 6.34766C51.5869 6.26953 51.4404 6.21419 51.2711 6.18164C51.1018 6.14258 50.9195 6.11654 50.7242 6.10352V5.46875L53.9273 5.25391L54.0641 5.39062V6.74805H54.1129C54.2691 6.5918 54.4645 6.40625 54.6988 6.19141C54.9332 5.97005 55.1546 5.79102 55.3629 5.6543C55.6038 5.49805 55.8902 5.36784 56.2223 5.26367C56.5543 5.15951 56.9286 5.10742 57.3453 5.10742C58.2698 5.10742 58.9534 5.39714 59.3961 5.97656C59.8453 6.54948 60.0699 7.31445 60.0699 8.27148V13.2812C60.0699 13.5091 60.109 13.6947 60.1871 13.8379C60.2652 13.9746 60.3987 14.082 60.5875 14.1602C60.7438 14.2253 60.8772 14.2708 60.9879 14.2969C61.1051 14.3229 61.2646 14.3424 61.4664 14.3555V15ZM72.4027 12.7344C71.9991 13.5026 71.4587 14.1146 70.7816 14.5703C70.1046 15.026 69.3266 15.2539 68.4477 15.2539C67.6729 15.2539 66.9926 15.1172 66.4066 14.8438C65.8272 14.5703 65.3487 14.1992 64.9711 13.7305C64.5935 13.2617 64.3103 12.7148 64.1215 12.0898C63.9392 11.4648 63.8481 10.804 63.8481 10.1074C63.8481 9.48242 63.9457 8.87044 64.141 8.27148C64.3428 7.66602 64.6358 7.1224 65.0199 6.64062C65.391 6.17839 65.85 5.80729 66.3969 5.52734C66.9503 5.24089 67.5688 5.09766 68.2523 5.09766C68.9555 5.09766 69.5577 5.20833 70.059 5.42969C70.5603 5.65104 70.9672 5.95378 71.2797 6.33789C71.5792 6.70247 71.8005 7.13216 71.9438 7.62695C72.0935 8.12174 72.1684 8.65885 72.1684 9.23828V9.88281H65.7914C65.7914 10.5143 65.85 11.0872 65.9672 11.6016C66.0909 12.1159 66.2829 12.5684 66.5434 12.959C66.7973 13.3366 67.1293 13.6361 67.5395 13.8574C67.9496 14.0723 68.4379 14.1797 69.0043 14.1797C69.5837 14.1797 70.0818 14.0462 70.4984 13.7793C70.9216 13.5059 71.3285 13.0176 71.7191 12.3145L72.4027 12.7344ZM70.2445 9.0625C70.2445 8.69792 70.212 8.30729 70.1469 7.89062C70.0883 7.47396 69.9906 7.12565 69.8539 6.8457C69.7042 6.54622 69.4991 6.30208 69.2387 6.11328C68.9783 5.92448 68.643 5.83008 68.2328 5.83008C67.5492 5.83008 66.9796 6.11654 66.5238 6.68945C66.0746 7.25586 65.8305 8.04688 65.7914 9.0625H70.2445Z" fill="#545454"/>
</svg>
